<svg width="40" height="40" viewBox="0 0 40 40" fill="none" xmlns="http://www.w3.org/2000/svg">
  <circle cx="20" cy="20" r="20" fill="#DC2626"/>
  <path d="M12 14C12 12.8954 12.8954 12 14 12H26C27.1046 12 28 12.8954 28 14V26C28 27.1046 27.1046 28 26 28H14C12.8954 28 12 27.1046 12 26V14Z" fill="white"/>
  <path d="M16 16C16 15.4477 16.4477 15 17 15H23C23.5523 15 24 15.4477 24 16V24C24 24.5523 23.5523 25 23 25H17C16.4477 25 16 24.5523 16 24V16Z" fill="#DC2626"/>
  <path d="M18 18C18 17.4477 18.4477 17 19 17H21C21.5523 17 22 17.4477 22 18V22C22 22.5523 21.5523 23 21 23H19C18.4477 23 18 22.5523 18 22V18Z" fill="white"/>
</svg> 